<svg width="30" height="30" viewBox="0 0 30 30" fill="none" xmlns="http://www.w3.org/2000/svg">
<path d="M15 30C23.2059 30 30 23.1912 30 15C30 6.79412 23.1912 0 14.9853 0C6.79412 0 0 6.79412 0 15C0 23.1912 6.80882 30 15 30ZM9.80882 21.4118C9.14706 21.4118 8.60294 20.8529 8.60294 20.1765C8.60294 19.8529 8.73529 19.5588 8.95588 19.3235L13.2647 15.0147L8.95588 10.7059C8.73529 10.4706 8.60294 10.1765 8.60294 9.85294C8.60294 9.17647 9.14706 8.64706 9.80882 8.64706C10.1618 8.64706 10.4412 8.76471 10.6618 9L14.9853 13.3088L19.3529 8.98529C19.6029 8.73529 19.8676 8.61765 20.1912 8.61765C20.8529 8.61765 21.3971 9.16177 21.3971 9.82353C21.3971 10.1618 21.2941 10.4265 21.0441 10.6912L16.7206 15.0147L21.0294 19.3088C21.2647 19.5588 21.3824 19.8382 21.3824 20.1765C21.3824 20.8529 20.8382 21.4118 20.1618 21.4118C19.8235 21.4118 19.5294 21.2647 19.2941 21.0441L14.9853 16.7353L10.7059 21.0441C10.4706 21.2794 10.1618 21.4118 9.80882 21.4118Z" fill="#3C3C43" fill-opacity="0.6"/>
</svg>
