<svg width="228" height="135" viewBox="0 0 228 135" fill="none" xmlns="http://www.w3.org/2000/svg">
<g filter="url(#filter0_f_15_102)">
<rect x="61" y="75" width="97" height="10" rx="5" fill="#0C3FFF"/>
</g>
<rect opacity="0.4" x="20.4718" y="18.0634" width="187.056" height="66.6338" rx="33.3169" fill="#F1F1F1" stroke="white" stroke-width="0.802817"/>
<rect opacity="0.6" x="11.6408" y="10.8381" width="204.718" height="66.6338" rx="33.3169" fill="#F1F1F1" stroke="white" stroke-width="0.802817"/>
<rect opacity="0.8" x="5.2183" y="5.2183" width="217.563" height="66.6338" rx="33.3169" fill="#F1F1F1" stroke="white" stroke-width="0.802817"/>
<rect x="0.401408" y="0.401408" width="227.197" height="66.6338" rx="33.3169" fill="#F1F1F1" stroke="white" stroke-width="0.802817"/>
<path d="M46.883 48.4406V24.7543H48.8611V48.4406H46.883ZM41.2055 32.4613C41.2055 31.3652 41.4881 30.3975 42.0532 29.5583C42.6184 28.7191 43.3977 28.0683 44.391 27.6059C45.4015 27.1263 46.5661 26.8865 47.8849 26.8865C49.1523 26.8865 50.2484 27.1092 51.1732 27.5545C52.1152 27.9998 52.8431 28.6335 53.3569 29.4555C53.8878 30.2776 54.1704 31.2539 54.2047 32.3842H51.0191C50.9849 31.5279 50.6851 30.8685 50.12 30.4061C49.5719 29.9437 48.8098 29.7125 47.8335 29.7125C46.7888 29.7125 45.9581 29.9522 45.3416 30.4318C44.725 30.8942 44.4167 31.5364 44.4167 32.3585C44.4167 33.0265 44.6051 33.566 44.9819 33.977C45.3587 34.3881 45.9581 34.6878 46.7802 34.8762L49.7346 35.5441C51.3788 35.9038 52.5862 36.4946 53.3569 37.3167C54.1276 38.1217 54.513 39.2092 54.513 40.5794C54.513 41.7269 54.2304 42.7374 53.6652 43.6108C53.1 44.4843 52.295 45.1608 51.2503 45.6403C50.2227 46.1028 49.0153 46.334 47.628 46.334C46.3092 46.334 45.1532 46.1113 44.1598 45.666C43.1665 45.2036 42.3872 44.5614 41.822 43.7393C41.274 42.9172 40.9828 41.9495 40.9486 40.8363H44.2369C44.254 41.6755 44.5623 42.3263 45.1618 42.7887C45.7612 43.2512 46.5918 43.4824 47.6537 43.4824C48.7841 43.4824 49.6747 43.2512 50.3255 42.7887C50.9934 42.3092 51.3274 41.6755 51.3274 40.8877C51.3274 39.586 50.5652 38.7639 49.041 38.4214L46.0609 37.7792C44.451 37.4366 43.235 36.8201 42.4129 35.9295C41.608 35.0217 41.2055 33.8657 41.2055 32.4613ZM60.3908 30.1749H56.2804V27.2205H63.525V46H60.3908V30.1749ZM69.8303 45.7688L70.1386 45.6917C70.0016 45.8116 69.8474 45.9058 69.6762 45.9743C69.522 46.0257 69.3336 46.0514 69.111 46.0514C68.6143 46.0514 68.1861 45.8887 67.8265 45.5633C67.4668 45.2207 67.287 44.7926 67.287 44.2788C67.287 43.6622 67.4668 43.1655 67.8265 42.7887C68.1861 42.4119 68.6571 42.2235 69.2394 42.2235C69.8903 42.2235 70.4212 42.4633 70.8322 42.9429C71.2433 43.4224 71.4488 44.0647 71.4488 44.8696C71.4488 45.5718 71.2946 46.2141 70.9864 46.7964C70.6781 47.3958 70.2499 47.8839 69.7019 48.2607C69.1538 48.6375 68.5287 48.8687 67.8265 48.9544V47.6955C68.4088 47.5928 68.8883 47.3701 69.2651 47.0276C69.6419 46.7022 69.8303 46.2826 69.8303 45.7688ZM87.3257 45.9743L74.3008 46V43.5337L80.4407 38.3443C81.0744 37.8134 81.6054 37.3253 82.0335 36.88C82.4788 36.4347 82.8299 36.0151 83.0868 35.6212C83.3437 35.2273 83.5321 34.8334 83.652 34.4394C83.7719 34.0455 83.8318 33.6174 83.8318 33.1549C83.8318 32.0931 83.5578 31.271 83.0098 30.6887C82.4617 30.1064 81.691 29.8152 80.6976 29.8152C79.67 29.8152 78.8565 30.1577 78.2571 30.8428C77.6576 31.5279 77.3494 32.4699 77.3322 33.6687H74.0696C74.0867 32.2986 74.3693 31.1083 74.9174 30.0978C75.4654 29.0702 76.2361 28.2824 77.2295 27.7343C78.2228 27.1691 79.3789 26.8865 80.6976 26.8865C82.0335 26.8865 83.181 27.1349 84.1401 27.6315C85.1163 28.1111 85.8699 28.8047 86.4009 29.7125C86.9318 30.6202 87.1972 31.7077 87.1972 32.9751C87.1972 33.6259 87.1031 34.251 86.9147 34.8505C86.7434 35.4328 86.4779 36.0065 86.1183 36.5717C85.7586 37.1198 85.3133 37.6764 84.7824 38.2416C84.2514 38.8068 83.6263 39.3976 82.907 40.0142L78.3341 43.9191L77.1524 42.9172H87.3257V45.9743ZM93.4066 30.1749H89.2962V27.2205H96.5408V46H93.4066V30.1749ZM106.062 46.3083C104.76 46.3083 103.613 46.0514 102.619 45.5376C101.643 45.0066 100.881 44.2702 100.333 43.3282C99.8018 42.3691 99.5363 41.2559 99.5363 39.9885H102.773C102.773 41.0504 103.073 41.881 103.672 42.4805C104.272 43.0799 105.094 43.3796 106.139 43.3796C106.875 43.3796 107.509 43.234 108.04 42.9429C108.588 42.6346 109.007 42.1979 109.299 41.6327C109.607 41.0675 109.761 40.4081 109.761 39.6545C109.761 38.9352 109.615 38.3015 109.324 37.7535C109.05 37.1883 108.648 36.7515 108.117 36.4433C107.586 36.135 106.944 35.9808 106.19 35.9808C105.471 35.9808 104.803 36.1435 104.186 36.469C103.587 36.7772 103.116 37.1797 102.773 37.6764L99.8703 37.0598L102.182 27.2205H111.97V30.2519H103.698L104.803 29.2243L103.287 35.2101L102.182 35.6726C102.593 34.8847 103.21 34.2853 104.032 33.8743C104.871 33.4461 105.813 33.232 106.858 33.232C108.108 33.232 109.196 33.4975 110.121 34.0284C111.063 34.5593 111.791 35.2958 112.304 36.2377C112.835 37.1626 113.101 38.2416 113.101 39.4747C113.101 40.8277 112.801 42.018 112.202 43.0456C111.619 44.0732 110.797 44.8782 109.735 45.4605C108.691 46.0257 107.466 46.3083 106.062 46.3083ZM117.211 46.3083C116.646 46.3083 116.157 46.1113 115.746 45.7174C115.335 45.3235 115.13 44.8439 115.13 44.2788C115.13 43.7136 115.335 43.234 115.746 42.8401C116.157 42.4291 116.646 42.2235 117.211 42.2235C117.776 42.2235 118.264 42.4291 118.675 42.8401C119.086 43.234 119.292 43.7136 119.292 44.2788C119.292 44.8439 119.086 45.3235 118.675 45.7174C118.264 46.1113 117.776 46.3083 117.211 46.3083ZM128.139 46.3083C126.837 46.3083 125.69 46.0514 124.697 45.5376C123.72 45.0066 122.958 44.2702 122.41 43.3282C121.879 42.3691 121.614 41.2559 121.614 39.9885H124.851C124.851 41.0504 125.15 41.881 125.75 42.4805C126.349 43.0799 127.171 43.3796 128.216 43.3796C128.953 43.3796 129.586 43.234 130.117 42.9429C130.665 42.6346 131.085 42.1979 131.376 41.6327C131.684 41.0675 131.838 40.4081 131.838 39.6545C131.838 38.9352 131.693 38.3015 131.402 37.7535C131.128 37.1883 130.725 36.7515 130.194 36.4433C129.663 36.135 129.021 35.9808 128.268 35.9808C127.548 35.9808 126.88 36.1435 126.264 36.469C125.664 36.7772 125.193 37.1797 124.851 37.6764L121.948 37.0598L124.26 27.2205H134.048V30.2519H125.776L126.88 29.2243L125.365 35.2101L124.26 35.6726C124.671 34.8847 125.288 34.2853 126.11 33.8743C126.949 33.4461 127.891 33.232 128.936 33.232C130.186 33.232 131.273 33.4975 132.198 34.0284C133.14 34.5593 133.868 35.2958 134.382 36.2377C134.913 37.1626 135.178 38.2416 135.178 39.4747C135.178 40.8277 134.878 42.018 134.279 43.0456C133.697 44.0732 132.875 44.8782 131.813 45.4605C130.768 46.0257 129.544 46.3083 128.139 46.3083ZM137.069 36.6488C137.069 34.6963 137.395 32.9922 138.045 31.5364C138.713 30.0807 139.638 28.9417 140.82 28.1197C142.019 27.2804 143.415 26.8608 145.007 26.8608C146.617 26.8608 148.013 27.2804 149.195 28.1197C150.394 28.9417 151.319 30.0807 151.97 31.5364C152.637 32.9922 152.971 34.6963 152.971 36.6488C152.971 38.5841 152.655 40.2797 152.021 41.7354C151.387 43.1912 150.479 44.3216 149.298 45.1265C148.116 45.9315 146.686 46.334 145.007 46.334C143.363 46.334 141.942 45.9315 140.743 45.1265C139.561 44.3216 138.653 43.1912 138.02 41.7354C137.386 40.2797 137.069 38.5841 137.069 36.6488ZM140.306 36.6488C140.306 38.0874 140.495 39.3206 140.871 40.3482C141.248 41.3586 141.788 42.1294 142.49 42.6603C143.192 43.1741 144.031 43.431 145.007 43.431C146.018 43.431 146.866 43.1741 147.551 42.6603C148.253 42.1294 148.793 41.3586 149.169 40.3482C149.546 39.3206 149.734 38.0874 149.734 36.6488C149.734 35.1588 149.546 33.9085 149.169 32.898C148.793 31.8704 148.253 31.0912 147.551 30.5602C146.866 30.0293 146.018 29.7638 145.007 29.7638C144.031 29.7638 143.192 30.0293 142.49 30.5602C141.788 31.0912 141.248 31.8704 140.871 32.898C140.495 33.9085 140.306 35.1588 140.306 36.6488Z" fill="#696969"/>
<path d="M173.031 30.4913C173.031 30.1166 173.141 29.7969 173.361 29.5322C173.586 29.2624 173.878 29.0926 174.238 29.0226L174.245 29.195C173.921 29.1101 173.668 28.9577 173.488 28.7379C173.314 28.5181 173.226 28.2509 173.226 27.9362C173.226 27.6464 173.306 27.3917 173.466 27.1719C173.626 26.9521 173.848 26.7797 174.133 26.6549C174.423 26.53 174.755 26.4675 175.129 26.4675C175.504 26.4675 175.831 26.53 176.111 26.6549C176.396 26.7747 176.616 26.9471 176.77 27.1719C176.93 27.3917 177.01 27.6514 177.01 27.9511C177.01 28.2658 176.92 28.5331 176.74 28.7529C176.561 28.9677 176.308 29.1126 175.984 29.1875L175.976 29.0301C176.221 29.0651 176.436 29.1525 176.621 29.2924C176.805 29.4273 176.948 29.5971 177.048 29.8019C177.153 30.0067 177.205 30.2365 177.205 30.4913C177.205 30.8209 177.118 31.1107 176.943 31.3604C176.773 31.6052 176.531 31.795 176.216 31.9299C175.906 32.0648 175.539 32.1322 175.114 32.1322C174.695 32.1322 174.328 32.0648 174.013 31.9299C173.703 31.795 173.461 31.6052 173.286 31.3604C173.116 31.1107 173.031 30.8209 173.031 30.4913ZM173.968 30.4238C173.968 30.5987 174.013 30.751 174.103 30.8809C174.198 31.0108 174.33 31.1107 174.5 31.1806C174.675 31.2505 174.882 31.2855 175.122 31.2855C175.352 31.2855 175.552 31.2505 175.721 31.1806C175.896 31.1107 176.029 31.0133 176.119 30.8884C176.213 30.7585 176.261 30.6036 176.261 30.4238C176.261 30.1591 176.156 29.9493 175.946 29.7944C175.741 29.6396 175.464 29.5621 175.114 29.5621C174.765 29.5621 174.485 29.6396 174.275 29.7944C174.07 29.9493 173.968 30.1591 173.968 30.4238ZM174.095 28.0186C174.095 28.2434 174.188 28.4257 174.373 28.5656C174.557 28.7004 174.805 28.7679 175.114 28.7679C175.419 28.7679 175.661 28.7004 175.841 28.5656C176.026 28.4307 176.119 28.2509 176.119 28.0261C176.119 27.7963 176.026 27.6165 175.841 27.4866C175.661 27.3517 175.419 27.2843 175.114 27.2843C174.805 27.2843 174.557 27.3517 174.373 27.4866C174.188 27.6165 174.095 27.7938 174.095 28.0186ZM179.705 32.1322C179.326 32.1322 178.991 32.0573 178.701 31.9074C178.417 31.7526 178.194 31.5378 178.034 31.263C177.88 30.9833 177.802 30.6586 177.802 30.2889H178.746C178.746 30.5987 178.834 30.8409 179.009 31.0158C179.183 31.1906 179.423 31.278 179.728 31.278C179.943 31.278 180.127 31.2356 180.282 31.1506C180.442 31.0607 180.565 30.9333 180.649 30.7685C180.739 30.6036 180.784 30.4113 180.784 30.1915C180.784 29.9817 180.742 29.7969 180.657 29.6371C180.577 29.4722 180.46 29.3448 180.305 29.2549C180.15 29.165 179.963 29.12 179.743 29.12C179.533 29.12 179.338 29.1675 179.158 29.2624C178.984 29.3523 178.846 29.4697 178.746 29.6146L177.9 29.4347L178.574 26.5649H181.429V27.4491H179.016L179.338 27.1494L178.896 28.8953L178.574 29.0301C178.694 28.8003 178.874 28.6255 179.113 28.5056C179.358 28.3807 179.633 28.3183 179.938 28.3183C180.302 28.3183 180.62 28.3957 180.889 28.5506C181.164 28.7054 181.376 28.9202 181.526 29.195C181.681 29.4647 181.758 29.7794 181.758 30.1391C181.758 30.5337 181.671 30.8809 181.496 31.1806C181.326 31.4803 181.087 31.7151 180.777 31.8849C180.472 32.0498 180.115 32.1322 179.705 32.1322ZM185.105 27.8987C185.105 28.1784 185.042 28.4282 184.918 28.648C184.798 28.8628 184.63 29.0326 184.416 29.1575C184.201 29.2774 183.953 29.3373 183.674 29.3373C183.399 29.3373 183.152 29.2774 182.932 29.1575C182.717 29.0326 182.547 28.8628 182.422 28.648C182.302 28.4282 182.243 28.1784 182.243 27.8987C182.243 27.619 182.302 27.3717 182.422 27.1569C182.547 26.9371 182.717 26.7673 182.932 26.6474C183.152 26.5225 183.399 26.46 183.674 26.46C183.953 26.46 184.201 26.5225 184.416 26.6474C184.63 26.7673 184.798 26.9371 184.918 27.1569C185.042 27.3717 185.105 27.619 185.105 27.8987ZM184.378 27.8987C184.378 27.6839 184.313 27.5091 184.183 27.3742C184.053 27.2343 183.884 27.1644 183.674 27.1644C183.464 27.1644 183.294 27.2343 183.164 27.3742C183.039 27.5091 182.977 27.6839 182.977 27.8987C182.977 28.1135 183.039 28.2908 183.164 28.4307C183.294 28.5706 183.464 28.6405 183.674 28.6405C183.884 28.6405 184.053 28.5706 184.183 28.4307C184.313 28.2908 184.378 28.1135 184.378 27.8987ZM188.11 26.5724L183.951 32.0423H183.037L187.195 26.5724H188.11ZM188.911 30.7011C188.911 30.9808 188.849 31.2306 188.724 31.4504C188.604 31.6652 188.437 31.835 188.222 31.9599C188.012 32.0798 187.767 32.1397 187.488 32.1397C187.208 32.1397 186.961 32.0798 186.746 31.9599C186.531 31.835 186.361 31.6652 186.236 31.4504C186.116 31.2306 186.056 30.9808 186.056 30.7011C186.056 30.4213 186.116 30.1741 186.236 29.9593C186.361 29.7395 186.531 29.5696 186.746 29.4497C186.961 29.3249 187.208 29.2624 187.488 29.2624C187.767 29.2624 188.012 29.3249 188.222 29.4497C188.437 29.5696 188.604 29.7395 188.724 29.9593C188.849 30.1741 188.911 30.4213 188.911 30.7011ZM188.184 30.7011C188.184 30.4813 188.12 30.3039 187.99 30.1691C187.865 30.0342 187.697 29.9667 187.488 29.9667C187.278 29.9667 187.108 30.0342 186.978 30.1691C186.848 30.3039 186.783 30.4813 186.783 30.7011C186.783 30.9159 186.848 31.0932 186.978 31.2331C187.108 31.3679 187.278 31.4354 187.488 31.4354C187.692 31.4354 187.86 31.3679 187.99 31.2331C188.12 31.0932 188.184 30.9159 188.184 30.7011Z" fill="#A9A9A9"/>
<path d="M166.825 27.7775L168.772 31.1493H164.879L166.825 27.7775Z" fill="#00E175"/>
<defs>
<filter id="filter0_f_15_102" x="11" y="25" width="197" height="110" filterUnits="userSpaceOnUse" color-interpolation-filters="sRGB">
<feFlood flood-opacity="0" result="BackgroundImageFix"/>
<feBlend mode="normal" in="SourceGraphic" in2="BackgroundImageFix" result="shape"/>
<feGaussianBlur stdDeviation="25" result="effect1_foregroundBlur_15_102"/>
</filter>
</defs>
</svg>
