<svg width="137" height="161" viewBox="0 0 137 161" fill="none" xmlns="http://www.w3.org/2000/svg">
<g filter="url(#filter0_f_28_165)">
<rect x="50" y="94.9437" width="32" height="16" rx="8" fill="#FAFF0C"/>
</g>
<path d="M57.1301 50.5706L59.7817 39.6357L62.4332 50.5706C66.6157 67.8188 80.0827 81.2858 97.3309 85.4682L108.266 88.1198L97.3309 90.7713C80.0827 94.9537 66.6157 108.421 62.4332 125.669L59.7817 136.604L57.1301 125.669C52.9477 108.421 39.4807 94.9537 22.2325 90.7713L11.2976 88.1198L22.2325 85.4682C39.4807 81.2858 52.9477 67.8188 57.1301 50.5706Z" fill="#F1F1F1" stroke="white" stroke-width="1.55422"/>
<path d="M88.9676 47.2395C99.6654 43.7428 108.067 35.3414 111.563 24.6436C115.06 35.3414 123.461 43.7428 134.159 47.2395C123.461 50.7361 115.06 59.1375 111.563 69.8353C108.067 59.1375 99.6654 50.7361 88.9676 47.2395Z" fill="#F1F1F1" stroke="white" stroke-width="1.55422"/>
<path d="M14.2581 14.5352C19.7468 12.4548 24.0886 8.11301 26.169 2.62427C28.2494 8.11301 32.5912 12.4548 38.08 14.5352C32.5912 16.6156 28.2494 20.9574 26.169 26.4461C24.0886 20.9574 19.7468 16.6156 14.2581 14.5352Z" fill="#F1F1F1" stroke="white" stroke-width="1.55422"/>
<defs>
<filter id="filter0_f_28_165" x="0" y="44.9437" width="132" height="116" filterUnits="userSpaceOnUse" color-interpolation-filters="sRGB">
<feFlood flood-opacity="0" result="BackgroundImageFix"/>
<feBlend mode="normal" in="SourceGraphic" in2="BackgroundImageFix" result="shape"/>
<feGaussianBlur stdDeviation="25" result="effect1_foregroundBlur_28_165"/>
</filter>
</defs>
</svg>
